# xmcd
#
# Track frame offsets: 
#        150
#        29434
#        44573
#        60695
#        72469
#        85042
#        97594
#        115546
#        129921
#        146330
#
# Disc length: 2198 seconds
#
# Revision: 2
# Processed by: cddbd v1.5.2PL0 Copyright (c) Steve Scherf et al.
# Submitted via: ExactAudioCopy v0.90b4
#
DISCID=7c08940a
DTITLE=Wilco - Being There [CD1]
DYEAR=1996
DGENRE=Indie
TTITLE0=Misunderstood
TTITLE1=Far, Far Away
TTITLE2=Monday
TTITLE3=Outtasite (Outta Mind)
TTITLE4=Forget the Flowers
TTITLE5=Red-Eyed and Blue
TTITLE6=I Got You (At the End of the Century)
TTITLE7=What's the World Got in Store
TTITLE8=Hotel Arizona
TTITLE9=Say You Miss Me
EXTD=
EXTT0=
EXTT1=
EXTT2=
EXTT3=
EXTT4=
EXTT5=
EXTT6=
EXTT7=
EXTT8=
EXTT9=
PLAYORDER=
